<svg id="Layer_1" data-name="Layer 1" xmlns="http://www.w3.org/2000/svg" viewBox="0 0 512 512"><defs><style>.cls-1{fill:#141f38;}</style></defs><title>secure-payment-glyph</title><path class="cls-1" d="M433.9,128H1.3A64.25,64.25,0,0,1,64,76.8H371.2A64.25,64.25,0,0,1,433.9,128ZM512,326.4v76.8a32,32,0,0,1-32,32H364.8a32,32,0,0,1-32-32V326.4a32,32,0,0,1,32-32h6.4a51.2,51.2,0,0,1,102.4,0H480A32,32,0,0,1,512,326.4Zm-76.8,32a12.8,12.8,0,0,0-25.6,0v12.8a12.8,12.8,0,0,0,25.6,0Zm12.8-64a25.6,25.6,0,0,0-51.2,0Zm-98.73-23.48A57.71,57.71,0,0,0,307.2,326.4V384H64A64.19,64.19,0,0,1,0,320V179.2H435.2v39.48a76.79,76.79,0,0,0-85.93,52.25ZM64,256a12.8,12.8,0,0,0,12.8,12.8h76.8a12.8,12.8,0,1,0,0-25.6H76.8A12.8,12.8,0,0,0,64,256Zm166.4,51.2a12.8,12.8,0,0,0-12.8-12.8H76.8a12.8,12.8,0,1,0,0,25.6H217.6A12.8,12.8,0,0,0,230.4,307.2Z"/></svg>