<?xml version="1.0" encoding="iso-8859-1"?>
<!-- Generator: Adobe Illustrator 19.0.0, SVG Export Plug-In . SVG Version: 6.00 Build 0)  -->
<svg version="1.1" id="Layer_1" xmlns="http://www.w3.org/2000/svg" xmlns:xlink="http://www.w3.org/1999/xlink" x="0px" y="0px"
	 viewBox="0 0 511.996 511.996" style="enable-background:new 0 0 511.996 511.996;" xml:space="preserve">
<g>
	<g>
		<path d="M500.052,151.998H340.916L299.204,26.822c-2.212-6.484-8.296-10.856-15.148-10.856c-1.752,0-3.488,0.284-5.156,0.848
			c-4.048,1.38-7.312,4.248-9.2,8.084s-2.168,8.196-0.8,12.216l38.288,114.884H204.92l38.272-114.864
			c1.38-4.044,1.1-8.392-0.788-12.228s-5.156-6.712-9.196-8.088c-1.672-0.572-3.408-0.864-5.16-0.864
			c-6.848,0-12.936,4.384-15.152,10.892l-41.704,125.152H12.052C5.432,151.998,0,157.334,0,163.95v16
			c0,5.32,3.528,9.788,8.328,11.356l17.44,181.036c1.404,19.648,18.584,35.656,38.28,35.656h76.096
			c-0.044,0-0.124-2.584-0.124-3.872c0-28.772,11.976-55.136,27.976-75.416v-92.76c0-6.624,5.376-12,12-12c6.624,0,12,5.376,12,12
			v71.552c16-10.084,32-16.7,52-18.644V235.95c0-6.624,5.376-12,12-12c6.624,0,12,5.376,12,12v52.944c20,2,36,8.656,52,18.808
			V235.95c0-6.624,5.376-12,12-12c6.624,0,12,5.376,12,12v93.116c16,20.232,27.712,46.456,27.712,75.056
			c0,1.288-0.028,3.872-0.072,3.872h76.412c19.7,0,36.864-16.004,38.26-35.56l17.408-181.116c4.804-1.572,8.28-6.052,8.28-11.372
			v-16C512,157.334,506.668,151.998,500.052,151.998z M116,359.95c0,6.628-5.376,12-12,12s-12-5.372-12-12v-124
			c0-6.624,5.376-12,12-12s12,5.376,12,12V359.95z M420,359.95c0,6.628-5.376,12-12,12c-6.624,0-12-5.372-12-12v-124
			c0-6.624,5.376-12,12-12c6.624,0,12,5.376,12,12V359.95z"/>
	</g>
</g>
<g>
	<g>
		<path d="M256.052,312.162c-50.784,0-91.944,41.164-91.944,91.94c0,50.78,41.16,91.94,91.944,91.94s91.944-41.16,91.944-91.94
			C347.996,353.326,306.836,312.162,256.052,312.162z M302.664,435.586c4.652,4.648,4.652,12.22,0,16.872
			c-2.248,2.252-5.248,3.492-8.432,3.492s-6.184-1.24-8.432-3.492l-28.248-28.248l-28.248,28.248
			c-4.504,4.508-12.368,4.508-16.872,0.008c-4.656-4.656-4.656-12.228,0-16.88l28.248-28.244l-28.248-28.248
			c-4.652-4.652-4.652-12.224,0-16.872c4.512-4.508,12.368-4.508,16.872,0l28.248,28.248l28.248-28.248
			c4.496-4.508,12.364-4.508,16.868-0.008c2.256,2.256,3.5,5.252,3.5,8.444c-0.004,3.184-1.248,6.18-3.5,8.432l-28.248,28.248
			L302.664,435.586z"/>
	</g>
</g>
<g>
</g>
<g>
</g>
<g>
</g>
<g>
</g>
<g>
</g>
<g>
</g>
<g>
</g>
<g>
</g>
<g>
</g>
<g>
</g>
<g>
</g>
<g>
</g>
<g>
</g>
<g>
</g>
<g>
</g>
</svg>
